<svg xmlns="http://www.w3.org/2000/svg" width="1400" height="858" viewBox="0 0 1400 858" role="img" aria-labelledby="title desc">
<title id="title">煤矸逐块分选线整体结构</title>
<desc id="desc">默认结构的俯视与高差示意：给料带、含自由竖辊犁面和单列车道的主带、低侧侧带、缓冲带、计量带、排料板及煤矸出口；四处相机、S1 与 S3 光电、三视角体积扫描和称重框架。</desc>
<rect width="1400" height="858" fill="#ffffff"/>
<g font-family="Microsoft YaHei, Noto Sans CJK SC, sans-serif">
<text x="52" y="44" text-anchor="start" dominant-baseline="central" font-size="31" font-weight="600" fill="#183044">煤矸逐块分选线</text>
<text x="52" y="82" text-anchor="start" dominant-baseline="central" font-size="19" font-weight="400" fill="#62768a">整体结构示意 · 当前默认配置 · 光电保留 S1、S3</text>
<rect x="1163" y="27" width="185" height="36" rx="18" fill="#edf3f8" stroke="none" stroke-width="1.5"/>
<text x="1255" y="45" text-anchor="middle" dominant-baseline="central" font-size="17" font-weight="600" fill="#2977b2">一批 3–5 块 / 单层</text>
<polyline points="52.00,108.00 1348.00,108.00" fill="none" stroke="#d7e0e8" stroke-width="1" stroke-linecap="round" stroke-linejoin="round"/>
<text x="52" y="130" text-anchor="start" dominant-baseline="central" font-size="19" font-weight="600" fill="#183044">01  俯视：沿料流从左向右</text>
<rect x="80" y="155" width="285" height="65" rx="10" fill="#eff8f5" stroke="#bdddd5" stroke-width="1.5"/>
<circle cx="104" cy="181" r="8" fill="#157f74" stroke="none" stroke-width="1.5"/>
<circle cx="104" cy="181" r="3" fill="#ffffff" stroke="none" stroke-width="1.5"/>
<text x="124" y="179" text-anchor="start" dominant-baseline="central" font-size="20" font-weight="600" fill="#157f74">给料相机</text>
<text x="124" y="204" text-anchor="start" dominant-baseline="central" font-size="16" font-weight="400" fill="#62768a">队列 / 预送</text>
<polyline points="222.50,224.00 225.00,250.00" fill="none" stroke="#157f74" stroke-width="1.6" stroke-linecap="round" stroke-linejoin="round" stroke-dasharray="6 5"/>
<polygon points="225.00,250.00 227.53,243.73 221.32,244.33" fill="#157f74" stroke="none" stroke-width="1"/>
<rect x="398" y="155" width="305" height="65" rx="10" fill="#eff8f5" stroke="#bdddd5" stroke-width="1.5"/>
<circle cx="422" cy="181" r="8" fill="#157f74" stroke="none" stroke-width="1.5"/>
<circle cx="422" cy="181" r="3" fill="#ffffff" stroke="none" stroke-width="1.5"/>
<text x="442" y="179" text-anchor="start" dominant-baseline="central" font-size="20" font-weight="600" fill="#157f74">单列段相机</text>
<text x="442" y="204" text-anchor="start" dominant-baseline="central" font-size="16" font-weight="400" fill="#62768a">机头 / 犁面 / 车道</text>
<polyline points="550.50,224.00 550.00,250.00" fill="none" stroke="#157f74" stroke-width="1.6" stroke-linecap="round" stroke-linejoin="round" stroke-dasharray="6 5"/>
<polygon points="550.00,250.00 553.23,244.06 547.00,243.94" fill="#157f74" stroke="none" stroke-width="1"/>
<rect x="744" y="155" width="305" height="65" rx="10" fill="#eff8f5" stroke="#bdddd5" stroke-width="1.5"/>
<circle cx="768" cy="181" r="8" fill="#157f74" stroke="none" stroke-width="1.5"/>
<circle cx="768" cy="181" r="3" fill="#ffffff" stroke="none" stroke-width="1.5"/>
<text x="788" y="179" text-anchor="start" dominant-baseline="central" font-size="20" font-weight="600" fill="#157f74">计量段相机</text>
<text x="788" y="204" text-anchor="start" dominant-baseline="central" font-size="16" font-weight="400" fill="#62768a">来料 / 缓冲 / 计量</text>
<polyline points="896.50,224.00 885.00,250.00" fill="none" stroke="#157f74" stroke-width="1.6" stroke-linecap="round" stroke-linejoin="round" stroke-dasharray="6 5"/>
<polygon points="885.00,250.00 890.28,245.77 884.57,243.25" fill="#157f74" stroke="none" stroke-width="1"/>
<rect x="1084" y="155" width="235" height="65" rx="10" fill="#eff8f5" stroke="#bdddd5" stroke-width="1.5"/>
<circle cx="1108" cy="181" r="8" fill="#157f74" stroke="none" stroke-width="1.5"/>
<circle cx="1108" cy="181" r="3" fill="#ffffff" stroke="none" stroke-width="1.5"/>
<text x="1128" y="179" text-anchor="start" dominant-baseline="central" font-size="20" font-weight="600" fill="#157f74">排料板相机</text>
<text x="1128" y="204" text-anchor="start" dominant-baseline="central" font-size="16" font-weight="400" fill="#62768a">翻板区域占位</text>
<polyline points="1201.50,224.00 1195.00,250.00" fill="none" stroke="#157f74" stroke-width="1.6" stroke-linecap="round" stroke-linejoin="round" stroke-dasharray="6 5"/>
<polygon points="1195.00,250.00 1199.48,244.94 1193.43,243.42" fill="#157f74" stroke="none" stroke-width="1"/>
<rect x="80.0" y="273.0" width="297.0" height="162" rx="7" fill="#e8f1f9" stroke="#2977b2" stroke-width="2"/>
<rect x="377.0" y="273.0" width="343.36889111598407" height="162" rx="7" fill="#eef2f5" stroke="#899cae" stroke-width="2"/>
<rect x="720.3688911159841" y="340.5" width="202.5" height="94.5" rx="5" fill="#e5f2f6" stroke="#2977b2" stroke-width="2"/>
<rect x="922.8688911159841" y="340.5" width="121.49999999999977" height="94.5" rx="5" fill="#d8e9f7" stroke="#2977b2" stroke-width="2.5"/>
<rect x="1047.0725" y="340.5" width="202.97250000000008" height="94.5" rx="4" fill="#f2e8d6" stroke="#a47835" stroke-width="2"/>
<polyline points="1051.07,349.50 1246.05,349.50" fill="none" stroke="#d0b58b" stroke-width="1.5" stroke-linecap="round" stroke-linejoin="round"/>
<polyline points="1051.07,362.25 1246.05,362.25" fill="none" stroke="#d0b58b" stroke-width="1.5" stroke-linecap="round" stroke-linejoin="round"/>
<polyline points="1051.07,375.00 1246.05,375.00" fill="none" stroke="#d0b58b" stroke-width="1.5" stroke-linecap="round" stroke-linejoin="round"/>
<polyline points="1051.07,387.75 1246.05,387.75" fill="none" stroke="#d0b58b" stroke-width="1.5" stroke-linecap="round" stroke-linejoin="round"/>
<polyline points="1051.07,400.50 1246.05,400.50" fill="none" stroke="#d0b58b" stroke-width="1.5" stroke-linecap="round" stroke-linejoin="round"/>
<polyline points="1051.07,413.25 1246.05,413.25" fill="none" stroke="#d0b58b" stroke-width="1.5" stroke-linecap="round" stroke-linejoin="round"/>
<polyline points="1051.07,426.00 1246.05,426.00" fill="none" stroke="#d0b58b" stroke-width="1.5" stroke-linecap="round" stroke-linejoin="round"/>
<polygon points="125.00,312.00 140.00,298.00 166.00,307.00 169.00,335.00 145.00,346.00 123.00,333.00" fill="#536777" stroke="#ffffff" stroke-width="1.5"/>
<polygon points="215.00,352.00 230.00,338.00 256.00,347.00 259.00,375.00 235.00,386.00 213.00,373.00" fill="#687c8b" stroke="#ffffff" stroke-width="1.5"/>
<polygon points="286.00,307.00 301.00,293.00 327.00,302.00 330.00,330.00 306.00,341.00 284.00,328.00" fill="#7b674d" stroke="#ffffff" stroke-width="1.5"/>
<polyline points="116.00,399.00 319.00,399.00" fill="none" stroke="#2977b2" stroke-width="3" stroke-linecap="round" stroke-linejoin="round"/>
<polygon points="319.00,399.00 310.00,394.32 310.00,403.68" fill="#2977b2" stroke="none" stroke-width="1"/>
<polyline points="420.00,370.00 474.00,370.00" fill="none" stroke="#6d8497" stroke-width="3" stroke-linecap="round" stroke-linejoin="round"/>
<polygon points="474.00,370.00 465.00,365.32 465.00,374.68" fill="#6d8497" stroke="none" stroke-width="1"/>
<polyline points="750.00,387.75 857.00,387.75" fill="none" stroke="#2977b2" stroke-width="3" stroke-linecap="round" stroke-linejoin="round"/>
<polygon points="857.00,387.75 848.00,383.07 848.00,392.43" fill="#2977b2" stroke="none" stroke-width="1"/>
<polyline points="947.00,387.75 1024.00,387.75" fill="none" stroke="#2977b2" stroke-width="3" stroke-linecap="round" stroke-linejoin="round"/>
<polygon points="1024.00,387.75 1015.00,383.07 1015.00,392.43" fill="#2977b2" stroke="none" stroke-width="1"/>
<polyline points="1104.00,387.75 1210.00,387.75" fill="none" stroke="#a47835" stroke-width="3" stroke-linecap="round" stroke-linejoin="round"/>
<polygon points="1210.00,387.75 1201.00,383.07 1201.00,392.43" fill="#a47835" stroke="none" stroke-width="1"/>
<polyline points="1268.00,387.75 1330.00,387.75" fill="none" stroke="#183044" stroke-width="2.5" stroke-linecap="round" stroke-linejoin="round"/>
<polygon points="1330.00,387.75 1321.00,383.07 1321.00,392.43" fill="#183044" stroke="none" stroke-width="1"/>
<text x="1300" y="360.75" text-anchor="middle" dominant-baseline="central" font-size="18" font-weight="600" fill="#183044">煤 / 矸</text>
<polyline points="603.08,347.25 720.37,347.25" fill="none" stroke="#183044" stroke-width="4" stroke-linecap="round" stroke-linejoin="round"/>
<polyline points="467.92,431.25 720.37,431.25" fill="none" stroke="#157f74" stroke-width="9" stroke-linecap="round" stroke-linejoin="round"/>
<polyline points="467.92,426.25 467.92,436.25" fill="none" stroke="#ffffff" stroke-width="1" stroke-linecap="round" stroke-linejoin="round"/>
<polyline points="481.21,426.25 481.21,436.25" fill="none" stroke="#ffffff" stroke-width="1" stroke-linecap="round" stroke-linejoin="round"/>
<polyline points="494.49,426.25 494.49,436.25" fill="none" stroke="#ffffff" stroke-width="1" stroke-linecap="round" stroke-linejoin="round"/>
<polyline points="507.78,426.25 507.78,436.25" fill="none" stroke="#ffffff" stroke-width="1" stroke-linecap="round" stroke-linejoin="round"/>
<polyline points="521.07,426.25 521.07,436.25" fill="none" stroke="#ffffff" stroke-width="1" stroke-linecap="round" stroke-linejoin="round"/>
<polyline points="534.35,426.25 534.35,436.25" fill="none" stroke="#ffffff" stroke-width="1" stroke-linecap="round" stroke-linejoin="round"/>
<polyline points="547.64,426.25 547.64,436.25" fill="none" stroke="#ffffff" stroke-width="1" stroke-linecap="round" stroke-linejoin="round"/>
<polyline points="560.93,426.25 560.93,436.25" fill="none" stroke="#ffffff" stroke-width="1" stroke-linecap="round" stroke-linejoin="round"/>
<polyline points="574.21,426.25 574.21,436.25" fill="none" stroke="#ffffff" stroke-width="1" stroke-linecap="round" stroke-linejoin="round"/>
<polyline points="587.50,426.25 587.50,436.25" fill="none" stroke="#ffffff" stroke-width="1" stroke-linecap="round" stroke-linejoin="round"/>
<polyline points="600.79,426.25 600.79,436.25" fill="none" stroke="#ffffff" stroke-width="1" stroke-linecap="round" stroke-linejoin="round"/>
<polyline points="614.07,426.25 614.07,436.25" fill="none" stroke="#ffffff" stroke-width="1" stroke-linecap="round" stroke-linejoin="round"/>
<polyline points="627.36,426.25 627.36,436.25" fill="none" stroke="#ffffff" stroke-width="1" stroke-linecap="round" stroke-linejoin="round"/>
<polyline points="640.65,426.25 640.65,436.25" fill="none" stroke="#ffffff" stroke-width="1" stroke-linecap="round" stroke-linejoin="round"/>
<polyline points="653.93,426.25 653.93,436.25" fill="none" stroke="#ffffff" stroke-width="1" stroke-linecap="round" stroke-linejoin="round"/>
<polyline points="667.22,426.25 667.22,436.25" fill="none" stroke="#ffffff" stroke-width="1" stroke-linecap="round" stroke-linejoin="round"/>
<polyline points="680.51,426.25 680.51,436.25" fill="none" stroke="#ffffff" stroke-width="1" stroke-linecap="round" stroke-linejoin="round"/>
<polyline points="693.80,426.25 693.80,436.25" fill="none" stroke="#ffffff" stroke-width="1" stroke-linecap="round" stroke-linejoin="round"/>
<polyline points="707.08,426.25 707.08,436.25" fill="none" stroke="#ffffff" stroke-width="1" stroke-linecap="round" stroke-linejoin="round"/>
<text x="661.7226153504566" y="387.75" text-anchor="middle" dominant-baseline="central" font-size="17" font-weight="600" fill="#183044">单列车道</text>
<text x="661.7226153504566" y="412.75" text-anchor="middle" dominant-baseline="central" font-size="15" font-weight="400" fill="#62768a">净宽 0.60 m</text>
<polyline points="485.00,273.00 487.17,276.09 489.46,279.19 491.88,282.28 494.43,285.38 497.13,288.47 499.98,291.56 502.98,294.66 506.14,297.75 509.48,300.84 513.00,303.94 516.72,307.03 520.64,310.13 524.79,313.22 529.17,316.31 533.81,319.41 538.73,322.50 543.95,325.59 549.50,328.69 555.41,331.78 561.73,334.88 568.50,337.97 575.77,341.06 583.62,344.16 592.12,347.25" fill="none" stroke="#697c8d" stroke-width="10" stroke-linecap="round" stroke-linejoin="round"/>
<circle cx="485.0" cy="273.0" r="6" fill="#ffffff" stroke="#566b7d" stroke-width="1.8"/>
<circle cx="491.87822404245003" cy="282.28125" r="6" fill="#ffffff" stroke="#566b7d" stroke-width="1.8"/>
<circle cx="499.9777604832661" cy="291.5625" r="6" fill="#ffffff" stroke="#566b7d" stroke-width="1.8"/>
<circle cx="509.48189112231626" cy="300.84375" r="6" fill="#ffffff" stroke="#566b7d" stroke-width="1.8"/>
<circle cx="520.6412929436058" cy="310.12500000000006" r="6" fill="#ffffff" stroke="#566b7d" stroke-width="1.8"/>
<circle cx="533.8084568707723" cy="319.40625000000006" r="6" fill="#ffffff" stroke="#566b7d" stroke-width="1.8"/>
<circle cx="549.4980332439322" cy="328.68750000000006" r="6" fill="#ffffff" stroke="#566b7d" stroke-width="1.8"/>
<circle cx="568.500602912367" cy="337.9687500000001" r="6" fill="#ffffff" stroke="#566b7d" stroke-width="1.8"/>
<circle cx="592.118891115984" cy="347.2500000000001" r="6" fill="#ffffff" stroke="#566b7d" stroke-width="1.8"/>
<text x="565" y="256" text-anchor="middle" dominant-baseline="central" font-size="18" font-weight="600" fill="#183044">自由竖辊犁面</text>
<polyline points="390.50,273.00 390.50,428.25" fill="none" stroke="#c97718" stroke-width="2.3" stroke-linecap="round" stroke-linejoin="round" stroke-dasharray="6 5"/>
<rect x="385.5" y="268.0" width="10" height="10" rx="2" fill="#c97718" stroke="#965307" stroke-width="1"/>
<rect x="385.5" y="423.25" width="10" height="10" rx="2" fill="#c97718" stroke="#965307" stroke-width="1"/>
<text x="390.5" y="255.0" text-anchor="middle" dominant-baseline="central" font-size="17" font-weight="600" fill="#c97718">S1</text>
<polyline points="893.44,340.50 893.44,435.00" fill="none" stroke="#c97718" stroke-width="2.3" stroke-linecap="round" stroke-linejoin="round" stroke-dasharray="6 5"/>
<rect x="888.438891115984" y="335.5" width="10" height="10" rx="2" fill="#c97718" stroke="#965307" stroke-width="1"/>
<rect x="888.438891115984" y="430.0" width="10" height="10" rx="2" fill="#c97718" stroke="#965307" stroke-width="1"/>
<text x="893.438891115984" y="322.5" text-anchor="middle" dominant-baseline="central" font-size="17" font-weight="600" fill="#c97718">S3</text>
<rect x="976.618891115984" y="301" width="14" height="10" rx="2" fill="#2977b2" stroke="none" stroke-width="1.5"/>
<polyline points="983.62,313.00 983.62,335.50" fill="none" stroke="#2977b2" stroke-width="1.2" stroke-linecap="round" stroke-linejoin="round" stroke-dasharray="6 5"/>
<rect x="939.618891115984" y="316" width="14" height="10" rx="2" fill="#2977b2" stroke="none" stroke-width="1.5"/>
<polyline points="946.62,328.00 983.62,335.50" fill="none" stroke="#2977b2" stroke-width="1.2" stroke-linecap="round" stroke-linejoin="round" stroke-dasharray="6 5"/>
<rect x="1013.618891115984" y="316" width="14" height="10" rx="2" fill="#2977b2" stroke="none" stroke-width="1.5"/>
<polyline points="1020.62,328.00 983.62,335.50" fill="none" stroke="#2977b2" stroke-width="1.2" stroke-linecap="round" stroke-linejoin="round" stroke-dasharray="6 5"/>
<text x="983.618891115984" y="281" text-anchor="middle" dominant-baseline="central" font-size="17" font-weight="400" fill="#2977b2">三视角体积扫描</text>
<rect x="928.8688911159841" y="440.0" width="14" height="9" rx="2" fill="#2977b2" stroke="none" stroke-width="1.5"/>
<rect x="1024.3688911159838" y="440.0" width="14" height="9" rx="2" fill="#2977b2" stroke="none" stroke-width="1.5"/>
<text x="228.5" y="472" text-anchor="middle" dominant-baseline="central" font-size="22" font-weight="600" fill="#183044">给料带</text>
<text x="228.5" y="503" text-anchor="middle" dominant-baseline="central" font-size="17" font-weight="400" fill="#62768a">0.10 / 0.03 m/s</text>
<text x="548.684445557992" y="472" text-anchor="middle" dominant-baseline="central" font-size="22" font-weight="600" fill="#183044">主带</text>
<text x="548.684445557992" y="503" text-anchor="middle" dominant-baseline="central" font-size="17" font-weight="400" fill="#62768a">0.40 m/s</text>
<text x="821.6188911159841" y="472" text-anchor="middle" dominant-baseline="central" font-size="22" font-weight="600" fill="#183044">缓冲带</text>
<text x="821.6188911159841" y="503" text-anchor="middle" dominant-baseline="central" font-size="17" font-weight="400" fill="#62768a">1.50 m · 0.80 m/s</text>
<text x="983.618891115984" y="472" text-anchor="middle" dominant-baseline="central" font-size="22" font-weight="600" fill="#183044">计量带</text>
<text x="983.618891115984" y="503" text-anchor="middle" dominant-baseline="central" font-size="17" font-weight="400" fill="#62768a">0.90 m · 0.40 m/s</text>
<text x="1148.5587500000001" y="472" text-anchor="middle" dominant-baseline="central" font-size="22" font-weight="600" fill="#183044">排料板</text>
<text x="1148.5587500000001" y="503" text-anchor="middle" dominant-baseline="central" font-size="17" font-weight="400" fill="#62768a">落板走煤 / 抬板落矸</text>
<text x="594.143891115984" y="529" text-anchor="middle" dominant-baseline="central" font-size="17" font-weight="400" fill="#157f74">低侧侧带  0.60 m/s</text>
<text x="983.618891115984" y="529" text-anchor="middle" dominant-baseline="central" font-size="17" font-weight="400" fill="#2977b2">独立称重框架</text>
<polyline points="52.00,552.00 1348.00,552.00" fill="none" stroke="#d7e0e8" stroke-width="1" stroke-linecap="round" stroke-linejoin="round"/>
<text x="52" y="578" text-anchor="start" dominant-baseline="central" font-size="19" font-weight="600" fill="#183044">02  侧视：两处高差与分选去向</text>
<rect x="80.0" y="654.2" width="297.0" height="13" rx="4" fill="#2977b2" stroke="none" stroke-width="1.5"/>
<polyline points="98.00,668.20 98.00,693.20" fill="none" stroke="#9aaab7" stroke-width="3" stroke-linecap="round" stroke-linejoin="round"/>
<polyline points="359.00,668.20 359.00,693.20" fill="none" stroke="#9aaab7" stroke-width="3" stroke-linecap="round" stroke-linejoin="round"/>
<rect x="377.0" y="667.0" width="343.36889111598407" height="13" rx="4" fill="#71889a" stroke="none" stroke-width="1.5"/>
<polyline points="395.00,681.00 395.00,706.00" fill="none" stroke="#9aaab7" stroke-width="3" stroke-linecap="round" stroke-linejoin="round"/>
<polyline points="702.37,681.00 702.37,706.00" fill="none" stroke="#9aaab7" stroke-width="3" stroke-linecap="round" stroke-linejoin="round"/>
<rect x="720.3688911159841" y="679.8" width="202.5" height="13" rx="4" fill="#2977b2" stroke="none" stroke-width="1.5"/>
<polyline points="738.37,693.80 738.37,718.80" fill="none" stroke="#9aaab7" stroke-width="3" stroke-linecap="round" stroke-linejoin="round"/>
<polyline points="904.87,693.80 904.87,718.80" fill="none" stroke="#9aaab7" stroke-width="3" stroke-linecap="round" stroke-linejoin="round"/>
<rect x="922.8688911159841" y="679.8" width="121.49999999999977" height="13" rx="4" fill="#2977b2" stroke="none" stroke-width="1.5"/>
<polyline points="940.87,693.80 940.87,718.80" fill="none" stroke="#9aaab7" stroke-width="3" stroke-linecap="round" stroke-linejoin="round"/>
<polyline points="1026.37,693.80 1026.37,718.80" fill="none" stroke="#9aaab7" stroke-width="3" stroke-linecap="round" stroke-linejoin="round"/>
<polyline points="377.00,654.20 377.00,667.00" fill="none" stroke="#62768a" stroke-width="1.8" stroke-linecap="round" stroke-linejoin="round" stroke-dasharray="6 5"/>
<polyline points="720.37,667.00 720.37,679.80" fill="none" stroke="#62768a" stroke-width="1.8" stroke-linecap="round" stroke-linejoin="round" stroke-dasharray="6 5"/>
<text x="366.0" y="617" text-anchor="middle" dominant-baseline="central" font-size="17" font-weight="400" fill="#62768a">下落 10 cm</text>
<polyline points="366.00,631.00 374.00,649.20" fill="none" stroke="#62768a" stroke-width="1.2" stroke-linecap="round" stroke-linejoin="round"/>
<text x="724.3688911159841" y="631" text-anchor="middle" dominant-baseline="central" font-size="17" font-weight="400" fill="#62768a">下落 10 cm</text>
<polyline points="724.37,645.00 724.37,664.00" fill="none" stroke="#62768a" stroke-width="1.2" stroke-linecap="round" stroke-linejoin="round"/>
<text x="228.5" y="711.2" text-anchor="middle" dominant-baseline="central" font-size="18" font-weight="400" fill="#183044">给料带</text>
<polyline points="197.50,642.20 259.50,642.20" fill="none" stroke="#2977b2" stroke-width="2" stroke-linecap="round" stroke-linejoin="round"/>
<polygon points="259.50,642.20 252.50,638.56 252.50,645.84" fill="#2977b2" stroke="none" stroke-width="1"/>
<text x="548.684445557992" y="724.0" text-anchor="middle" dominant-baseline="central" font-size="18" font-weight="400" fill="#183044">主带</text>
<polyline points="517.68,655.00 579.68,655.00" fill="none" stroke="#2977b2" stroke-width="2" stroke-linecap="round" stroke-linejoin="round"/>
<polygon points="579.68,655.00 572.68,651.36 572.68,658.64" fill="#2977b2" stroke="none" stroke-width="1"/>
<text x="821.6188911159841" y="736.8" text-anchor="middle" dominant-baseline="central" font-size="18" font-weight="400" fill="#183044">缓冲带</text>
<polyline points="790.62,667.80 852.62,667.80" fill="none" stroke="#2977b2" stroke-width="2" stroke-linecap="round" stroke-linejoin="round"/>
<polygon points="852.62,667.80 845.62,664.16 845.62,671.44" fill="#2977b2" stroke="none" stroke-width="1"/>
<text x="983.618891115984" y="736.8" text-anchor="middle" dominant-baseline="central" font-size="18" font-weight="400" fill="#183044">计量带</text>
<polyline points="952.62,667.80 1014.62,667.80" fill="none" stroke="#2977b2" stroke-width="2" stroke-linecap="round" stroke-linejoin="round"/>
<polygon points="1014.62,667.80 1007.62,664.16 1007.62,671.44" fill="#2977b2" stroke="none" stroke-width="1"/>
<polyline points="1047.07,684.15 1250.05,754.19" fill="none" stroke="#a47835" stroke-width="9" stroke-linecap="round" stroke-linejoin="round"/>
<polyline points="1173.18,613.07 1229.08,810.90" fill="none" stroke="#c97718" stroke-width="5" stroke-linecap="round" stroke-linejoin="round" stroke-dasharray="6 5"/>
<circle cx="1182.1265" cy="763.448" r="6" fill="#ffffff" stroke="#a47835" stroke-width="2"/>
<text x="1144" y="628" text-anchor="middle" dominant-baseline="central" font-size="17" font-weight="400" fill="#c97718">抬板 75°</text>
<text x="1194" y="702" text-anchor="middle" dominant-baseline="central" font-size="17" font-weight="400" fill="#8b652b">落板 20°</text>
<rect x="1031" y="771" width="86" height="42" rx="5" fill="#fff1df" stroke="#d2a86e" stroke-width="1.5"/>
<rect x="1270" y="771" width="78" height="42" rx="5" fill="#e9f2f9" stroke="#8eb3d1" stroke-width="1.5"/>
<text x="1074" y="792" text-anchor="middle" dominant-baseline="central" font-size="19" font-weight="600" fill="#c97718">矸石</text>
<text x="1309" y="792" text-anchor="middle" dominant-baseline="central" font-size="19" font-weight="600" fill="#2977b2">煤</text>
<polyline points="1049.37,681.80 1074.00,737.00 1074.00,765.00" fill="none" stroke="#c97718" stroke-width="2.5" stroke-linecap="round" stroke-linejoin="round"/>
<polygon points="1074.00,765.00 1078.16,757.00 1069.84,757.00" fill="#c97718" stroke="none" stroke-width="1"/>
<polyline points="1250.05,754.19 1309.00,759.00 1309.00,765.00" fill="none" stroke="#2977b2" stroke-width="2.5" stroke-linecap="round" stroke-linejoin="round"/>
<polygon points="1309.00,765.00 1313.16,757.00 1304.84,757.00" fill="#2977b2" stroke="none" stroke-width="1"/>
<text x="52" y="790" text-anchor="start" dominant-baseline="central" font-size="16" font-weight="400" fill="#62768a">橙色：光电 / 落矸路径     绿色：相机 / 侧带     蓝色：传送与计量</text>
<text x="52" y="835" text-anchor="start" dominant-baseline="central" font-size="16" font-weight="400" fill="#62768a">结构与高差示意，不作为尺寸图；给料相机用于视觉模式，默认给料读取真实质心。</text>
</g></svg>
